<svg xmlns="http://www.w3.org/2000/svg" viewBox="0 0 382 382" width="32" height="32">
	<style>
		tspan { white-space:pre }
		.shp0 { fill: #ffffff } 
	</style>
	<path id="Layer" fill-rule="evenodd" class="shp0" d="M382 34.55L382 347.44C382 366.53 366.53 382 347.44 382L34.55 382C15.47 382 0 366.53 0 347.44L0 34.55C0 15.47 15.47 0 34.55 0L347.44 0C366.53 0 382 15.47 382 34.55ZM118.21 150.4C118.21 144.85 113.7 140.35 108.15 140.35L65.34 140.35C59.79 140.35 55.29 144.85 55.29 150.4L55.29 329.84C55.29 335.4 59.79 339.9 65.34 339.9L108.15 339.9C113.7 339.9 118.21 335.4 118.21 329.84L118.21 150.4ZM127.41 82.77C127.41 60.31 109.21 42.1 86.75 42.1C64.29 42.1 46.08 60.31 46.08 82.77C46.08 105.22 64.29 123.43 86.75 123.43C109.21 123.43 127.41 105.22 127.41 82.77ZM341.91 330.65L341.91 243.81C341.91 206.05 342.33 137.34 268.78 137.34C235.56 137.34 219.96 149.5 209.47 165.25L209.47 149.59C209.47 144.49 205.33 140.35 200.22 140.35L155.8 140.35C150.69 140.35 146.55 144.49 146.55 149.59L146.55 330.65C146.55 335.76 150.69 339.9 155.8 339.9L200.22 339.9C205.33 339.9 209.47 335.76 209.47 330.65L209.47 233.57C210.62 220.53 216.36 191.46 244.67 191.46C281.17 191.46 277.48 233.93 277.48 246.49L277.48 330.65C277.48 335.76 281.62 339.9 286.73 339.9L332.66 339.9C337.77 339.9 341.91 335.76 341.91 330.65Z" />
	<g id="Layer">
	</g>
	<g id="Layer">
	</g>
	<g id="Layer">
	</g>
	<g id="Layer">
	</g>
	<g id="Layer">
	</g>
	<g id="Layer">
	</g>
	<g id="Layer">
	</g>
	<g id="Layer">
	</g>
	<g id="Layer">
	</g>
	<g id="Layer">
	</g>
	<g id="Layer">
	</g>
	<g id="Layer">
	</g>
	<g id="Layer">
	</g>
	<g id="Layer">
	</g>
	<g id="Layer">
	</g>
</svg>